<svg xmlns="http://www.w3.org/2000/svg">
	<rect fill="white" width="100%" height="100%"/>
	<path fill="black" stroke="black" stroke-width="1" shape-rendering="crispEdges" d="M391.547,128.548
		c-2.698,4.106-6.155,7.692-8.186,12.242c-2.925-2.784-10.995-10.573-14.866-5.9c-1.748,2.11-4.455,3.982-5.959,5.905
		c-2.839,3.629-3.347,8.26-6.737,11.773c-2.426-4.853-3.032-9.788-3.964-15.072c-0.516-2.921-0.957-5.916-1.844-8.743
		c-1.623-5.17-2.666-14.185-6.613-18.156c-0.738-0.743-2.192-0.771-3.113-0.931c-2.801-0.486-5.353-1.055-8.228-1.333
		c-2.561-0.248-6.158-1.727-8.611-0.791c1.748,3.22,3.842,4.016,4.019,7.96c0.191,4.265,1.787,5.879,4.089,9.473
		c-2.787-1.159-6.144-0.915-9.072-0.587c-0.662,0.074-8.809,1.362-8.504,0.293c0.619-2.165,0.436-4.382,0.501-6.62
		c3.329,0.798,4.774,3.508,4.584-1.008c-0.132-3.121-0.377-6.358-0.21-9.457c0.474,0.131,0.96-0.058,1.463,0.192
		c-0.949-2.395-2.501-4.82-2.822-7.377c-1.432-0.05-2.918,0.181-4.321,0.16c-0.393-0.005-1.508,0.663-1.857,0.414
		c-0.727-0.517-0.049-1.556-0.443-2.042c-1.306-1.615-0.04-0.787-2.288-1.157c-2.049-0.337-4.27-1.372-6.387-1.271
		c-0.183-2.314,2.52-7.129,0.481-8.944c-1.002-0.893-3.935-0.228-4.887-1.518c-0.336-0.455-0.21-2.761-0.239-3.338
		c-0.492-9.775,0.515-19.539,0.448-29.314c-0.059-8.582,0.043-18.052-1.786-26.457c-0.218-0.118-0.383-0.186-0.699-0.365
		c-2.434,1.326-2.429,1.921-5.135,1.063c-2.24-0.71-4.196-1.458-5.642-3.5c-0.222,0.858-0.3,1.746-0.231,2.641
		c-1.866-0.573-2.7,0.149-2.778-2.477c-0.05-1.706,1.052-2.909,1.19-4.564c-1.284,0.209-4.986,0.822-6.062-0.092
		c-1.448-1.232-0.755-6.092-0.866-7.867c-3.281,1.373-3.724,6.926-4.618,9.953c-3.036-1.189-4.727-2.489-7.665-4.594
		c-1.643-1.177-2.41-2.009-4.719-1.026c-3.92,1.668-0.804,4.988-2.576,7.604c-0.888,1.312-7.642,1.893-7.478,0.871
		c-0.741,4.602-1.463,13.602-6.377,15.784c-1.16-2.391-2.031-6.507-5.507-6.273c-0.596,0.04-1.382,0.704-1.997,0.529
		c-0.592-0.168-0.804-0.949-1.217-1.098c-1.014-0.366-1.22-1.323-2.83-0.347c-0.821-1.408-1.363-3.137-1.627-4.75
		c-1.659-0.191-4.696-0.102-5.602,1.25c-0.799,1.192-0.017,3.341,0.024,4.617c0.091,2.836-0.45,5.601-0.242,8.432
		c0.179,2.433,0.317,4.832-0.214,7.299c-2.599-0.358-5.409-0.024-8.023,0.148c-4.971,0.328-10.505-0.546-15.326,0.511
		c-1.753,0.384-3.359,2.431-4.902,2.573c-1.31,0.121-2.966-1.385-3.944-2.09c-1.712-1.234-4.253-1.943-5.601-3.53
		c-1.399,0.176-2.401,1.323-3.436,2.264c-1.741,1.583-3.576,2.995-5.34,4.538c-3.835,3.356-6.968,7.508-10.391,11.218
		c-1.139-0.778-1.754-0.204-2.733,0.454c-0.47,0.315-0.598,1.582-1.069,1.76c-0.779,0.295-1.151-0.654-1.762-0.484
		c-2.296,0.636-8.55,4.019-4.475,6.818c-2.996,1.871-5.815,4.205-8.696,6.443c-1.812,1.408-4.719,3.412-4.873,5.91
		c-0.142,2.323,2.367,4.02,3.676,5.624c1.768,2.166,3.295,4.671,4.54,7.176c0.761,1.533,2.225,3.504,2.63,5.073
		c0.585,2.263,0.565,4.79,1.206,7.157c0.638,2.359,0.902,4.553,1.139,6.975c0.225,2.307,1.459,5.669-0.044,7.42
		c-1.697,1.975-5.317,1.466-6.749,4.092c-1.555,2.853,0.628,6.352-0.494,9.229c-0.653,1.674-2.267,3.038-2.701,4.867
		c-0.507,2.133-0.225,4.665-0.34,6.889c-5.064,2.032-10.304,6.45-15.853,6.767c-2.33,0.133-4.587-1.806-6.98-2.199
		c-4.401-0.724-8.79,4.047-12.259,6.162c-4.242,2.586-8.777,5.331-13.804,5.95c-4.76,0.587-9.712-1.987-13.333-4.846
		c-3.495-2.76-5.942-8.278-10.867-8.733c-10.826-1.001-10.887,14.591-19.338,17.104c-4.439,1.32-7.295-0.566-11.788-0.957
		c-6.341-0.551-12.609-1.187-18.984-0.788c-3.486,0.218-6.076,0.03-6.892,3.401c-2.036,8.414,2.17,16.008,1.287,24.32
		c-0.26,2.449-1.425,5.753,0.763,7.575c2.731,2.274,6.372-0.849,9.296-1.279c1.896-0.279,3.117,0.022,4.02,1.787
		c0.38,0.742,1.375,4.464,1.064,5.216c-1.385,3.355-5.492,0.574-4.592,5.008c0.606,2.986,2.403,6.117,1.75,9.048
		c-0.567,2.542-1.112,4.937-0.011,7.69c1.094,2.737,3.56,3.679,6.216,4.54c2.871,0.931,6.03,1.664,8.708,2.896
		c3.171,1.459,3.876,3.336,5.486,6.154c0.477,0.833,1.501,3.033,2.258,3.55c1.609,1.101,4.189,0.507,6.235,0.767
		c0.571-4.379,4.822-3.782,8.252-5.159c0.833-0.334,4.137-1.554,4.617-2.298c1.339-2.076-0.92-7.157-1.772-9.138
		c-0.981-2.281-3.296-4.253-3.721-6.761c-0.589-3.486,4.335-4.32,6.739-4.58c-0.499-0.845-1.144-1.617-1.651-2.434
		c4.148-3.747,7.861-3.136,12.867-1.663c2.459-2.173,6.232-0.188,9.029,0.237c2.106,0.32,3.686,0.995,5.385,0.056
		c1.46-0.806,1.858-3.315,3.79-2.338c0.271-0.788,0.58-1.679,0.872-2.513c1.034,0.545,1.677,1.556,2.447,2.458
		c0.53,0.621,0.829,1.408,1.336,1.874c0.328,0.301,1.308,0.305,1.557,0.564c0.365,0.378,0.658,1.761,0.935,1.946
		c0.84,0.561,0.908,0.248,1.613,0.519c0.255,0.098,0.577-0.802,1.019-0.689c0.332,0.084,0.693,0.637,0.973,0.671
		c0.296,0.037,0.939,1.001,1.133,1.26c0.522-0.572,1.297-0.955,1.75-1.495c1.777,2.764,3.009,6.218,5.519,8.442
		c1.222,1.083,2.624,1.122,3.847,1.9c0.984,0.626,1.279,1.55,2.49,2.07c1.343,0.576,2.983,0.444,4.363,1.029
		c1.108,0.471,2.304,1.487,3.031,2.4c-4.556,1.431-8.53,3.416-12.97,5.276c-0.891,0.373-3.393,1.157-3.953,2.051
		c-0.601,0.958-0.295,2.641-0.286,3.773c0.033,3.705,3.276,6.625,5.401,9.348c0.815,1.045,3.608,5.324,5.064,5.214
		c-1.776,0.161-3.885,0.154-5.333,1.247c1.655,1.908,3.154,3.438,3.006,6.276c-0.11,2.111-1.935,5.41,1.982,4.558
		c0.737,1.654,0.352,4.36,0.621,6.226c0.232,1.607,1.21,5.175-0.486,6.35c-1.095,0.757-1.697-0.921-3.086,0.523
		c-2.35,2.443-1.106,9.602-3.832,11.009c-0.819,0.423-5.216-2.136-6.292-2.398c-2.459-0.599-3.11-0.283-4.284,2.356
		c-1.894-1.682-3.671-3.402-5.109-5.61c-0.994-1.526-1.681-3.383-3.018-4.115c-0.571-0.313-9.348-1.548-8.911-2.786
		c-1.288,3.644-2.63,7.257-4.932,10.397c-2.94,4.011-7.152,10.182-11.504,12.558c-3.841,2.097-8.621,2.036-12.877,3.323
		c-2.304,0.697-4.304,1.232-6.731,1.352c-3.177,0.155-6.152-0.373-9.293,0.32c-0.77,0.17-6.58,1.628-6.695-0.236
		c0.187,3.036-1.41,5.49-0.276,8.313c1.01,2.515,3.462,7.206,5.436,7.99c3.261,1.296,5.346-0.698,8.126-1.288
		c2.589-0.549,6.877,0.146,9.577,0.014c1.913-0.094,6.256-2.189,7.795-1.485c2.1,0.962,0.119,4.331-0.52,5.841
		c-1.045,2.47-3.009,7.139-4.853,8.906c-1.703,1.632-5.197,1.111-6.645,2.627c1.41,1.746,3.32,3.669,5.16,5.013
		c0.315-0.398,0.776-0.443,1.082-0.896c4.05,2.019,5.676,6.872,9.955,8.86c1.159-1.935,2.825-3.516,3.7-5.611
		c0.635-1.521,0.25-2.375,1.874-3.38c2.253-1.396,5.848-0.813,8.376-1.24c1.829-0.309,4.543-0.063,6.212-0.743
		c3.967-1.618,4.227-5.457,3.449-9.12c-0.346-1.628-3.231-9.787-1.708-10.082c0.415-1.413-0.378-3.342-0.411-4.898
		c-0.04-1.938,0.281-2.682,0.781-4.022c0.661-1.771,1.417-4.142,2.455-5.708c0.825-1.246,1.918-2.022,3.104-3.207
		c2.705-2.702,3.404-2.607,7.234-2.823c3.608-0.203,7.374-1.079,10.987-0.852c2.858,0.181,5.29,0.644,8.225,0.032
		c3.889-0.811,6.422-5.236,10.24-4.353c3.026,0.701,4.525,3.216,7.736,3.564c1.66,0.181,5.172-0.286,6.58,0.776
		c0.882,0.666,1.269,2.807,1.622,3.765c0.144-0.02,1.272-0.379,1.446-0.468c-0.033-1.082-0.183-3.504,0.545-4.354
		c0.651-0.759,2.106-0.538,3.059-1.052c-1.665-1.197-2.034-5.587-1.258-7.329c0.729-1.637,0.524-1.335,2.554-1.001
		c1.152,0.19,2.567,0.655,3.528,1.281c2.307,1.502,3.546,4.008,6.462,2.715c1.182-0.524,1.667-2.033,3.078-2.016
		c3.647,0.045,6.861,4.868,10.502,4.14c1.347-0.27,1.723-1.362,3.33-1.567c1.777-0.227,3.542,0.547,5.319,0.537
		c-0.814,3.988-3.907,7.071-5.851,10.519c-2.043,3.625-3.16,7.799-4.959,11.606c-4.456,9.429-8.519,19.051-13.438,28.256
		c-3.32,6.213-6.861,12.603-9.702,19.037c-1.455,3.295-3.104,6.432-4.662,9.703c-3.03,6.365-6.482,12.531-9.583,18.875
		c-0.938,1.919-3.109,5.031-1.953,6.811c0.855,1.315,4.631,2.386,6.094,2.721c0.221-0.325,0.62-0.528,0.783-0.723
		c0.734,2.574,2.993,3.646,5.269,4.602c2.228,0.935,4.296,2.748,6.345,3.586c1.724,0.706,10.521,0.832,7.729-2.656
		c3.396-2.592,6.136-5.882,9.164-8.867c1.544-1.522,3.322-2.754,4.891-4.221c0.511-0.478,2.956-3.986,3.123-3.968
		c2.691,0.294,2.196,0.04,2.391,2.225c0.109,1.22-0.327,2.712-0.256,3.943c0.1,1.731,0.254,2.067-0.438,3.338
		c-0.708,1.301-2.31,2.074-2.994,3.501c3.596-0.337,7.313-0.857,10.943-1.496c2.514-0.442,2.264-0.783,3.746,0.55
		c0.947,0.853,1.716,2.734,2.559,3.578c-3.855,3.098,2.592,10.044,4.412,13.03c-1.569,1.194-4.229,1.349-6.106,2.097
		c0.475,1.879,2.34,3.421,2.559,5.32c0.174,1.51-0.521,2.313-0.031,3.83c0.781,2.413,2.692,5.102,3.797,7.452
		c0.718,1.527,1.163,3.143,1.901,4.501c2.822-2.535,6.152,2.828,8.28,4.065c2.717,1.578,4.931,3.205,7.491,5.146
		c2.011,1.524,4.106,2.84,6.22,4.212c2.66,1.726,4.941,3.986,7.651,5.636c1.625,0.989,5.661,1.353,6.752,2.742
		c0.608,0.774,0.445,3.107,0.688,4.1c2.967-1.208,5.328-4.451,8.93-5.272c0.057,1.073,0.052,2.19,0.001,3.264
		c-0.43-0.078-1.048,0.162-1.466,0.077c0.69,2.826,1.688,6.346,1.537,9.393c1.174,0.057,2.373,0.13,3.507-0.178
		c0.313,0.389,0.709,1.328,0.736,1.752c-0.896,0.475-1.979,0.639-2.975,0.554c-0.201,2.401,1.863,5.565,2.073,8.135
		c1.594-0.127,3.507,0.555,4.778,1.47c0.452-2.426,6.519-4.312,7.529-1.729c0.895-0.468,1.812-0.823,2.772-0.588
		c1.605-3.028-0.772-5.052-0.741-8.311c2.113-0.101,6.263-1.66,7.843-3.03c1.345,2.657,3.508,5.196,4.617,7.919
		c0.394,0.969,0.246,2.235,0.578,3.267c0.72,2.236,2.228,3.767,4.314,5.372c-1.646,4.106-5.788,4.211-8.625,7.443
		c-2.803,3.192-5.1,7.661-6.69,11.536c2.607,0.862,6.435,2.849,7.927,5.172c0.978-3.121,4.36-4.297,7.422-4.483
		c2.298-0.141,2.493,0.529,4.105-1.533c1.588-2.033,2.081-4.984,3.834-6.772c1.239,1.025,2.14,3.138,3.394,3.967
		c1.065,0.704,2.169,0.29,3.381,0.597c1.74,0.439,3.576,2.113,5.258,2.271c1.427,0.134,2.771-0.848,4.114-0.61
		c-0.871-2.844-1.286-7.407,0.753-9.893c1.167-1.422,4.858-2.051,6.658-2.051c3.067,0,6.344,1.443,9.49,1.862
		c1.384,0.185,5.317,1.81,6.389,1.491c2.568-0.765,4.809-6.732,6.149-8.888c0.817-1.313,2.633-5.302,4.311-4.93
		c1.528,4.794,4.371,2.892,7.478,1.172c2.878-1.593,5.927-2.367,9.17-1.689c0.127,3.541,3.331,1.904,5.326,1.466
		c-0.475-1.711-1.084-3.336-1.625-5.079c-0.989-3.186-2.854-5.563-4.154-8.419c1.971-1.664,2.063-2.853,4.583-2.281
		c2.48,0.563,5.104,2.245,7.664,2.466c-0.292-1.313-0.989-2.836-1.547-4.117c-1.128-2.592-5.546-5.543-3.829-8.758
		c0.76-1.423,7.427-2.807,7.425-2.234c0.008-2.745,0.361-5.503,0.288-8.245c-0.055-2.074-0.987-4.469-0.471-6.535
		c0.32-1.272,2.221-0.979,0.941-3.08c-2.042,0.431-1.583-1.842-3.023-2.15c-2.534-0.544-3.998,2.477-6.224,0.375
		c-1.313-1.239-2.28-4.563-2.997-6.299c-2.25-5.449-4.774-10.938-6.732-16.492c-0.675-1.914-1.102-3.778-0.908-5.847
		c0.077-0.819,0.971-5.751,1.535-5.973c3.085-1.209,6.127-4.778,8.866-6.669c1.922-1.327,4.996-3.866,7.222-4.381
		c1.25-0.288,3.006,0.274,4.43,0.012c1.292-0.238,2.492-0.994,3.765-1.23c2.482-0.461,4.903-0.79,7.401-1.292
		c-1.323,1.951-3.598,2.955-4.576,5.141c-0.786,1.756-1.102,3.907-0.774,5.776c0.69,3.942,3.742,9.031,7.484,10.502
		c1.947,0.765,4.318,1.619,6.397,1.85c3.401,0.377,6.115-1.127,7.058,2.544c0.718,2.799,0.251,4.435,3.13,5.396
		c2.769,0.925,7.065,1.362,9.962,1.577c-0.31,2.621-0.746,5.305-1.47,7.869c1.768,0.259,3.755,2.132,5.563,1.324
		c0.351,6.609-0.354,13.227,0.037,19.861c0.127,2.153-0.36,1.92,1.064,2.664c2.17,1.133,6.11-0.684,8.432-0.275
		c-0.002-3.47,6.014-1.104,8.234-1.562c2.051-0.423,5.574-2.66,7.575-1.755c-0.151-0.518,0.113-1.159-0.108-1.739
		c0.366-0.237,0.957-0.45,1.402-0.463c0.209,3.269,0.813,3.793,4.137,4.264c3.743,0.529,7.848-1.021,11.488,0.296
		c0.621,3.902,1.404,5.691,5.18,7.65c1.579,0.819,1.928,0.438,3.578,0.424c2.579-0.022,5.245,0.302,7.826-0.161
		c1.551-0.278,5.499-2.277,6.993-1.672c1.692,0.685,1.438,4.316,1.557,6.006c0.36,5.17,0.568,10.352,0.589,15.535
		c0.014,3.461,0.263,8.102-2.373,10.854c-1.926,2.012-6.015,1.489-8.462,2.112c-2.841,0.725-13.787-0.755-13.436,3.857
		c-0.147-0.108-1.755-1.25-1.744-1.267c-0.884,1.291-1.538,2.635-2.41,3.95c1.107,0.377,2.108,1.07,2.963,1.9
		c-1.429,2.861-4.734,6.546-7.094,8.632c1.674,0.849,3.036,2.396,4.759,3.073c1.239-1.606,2.71-4.096,4.669-3.782
		c1.424,0.227,4.495,3.673,5.669,4.565c2.201,1.672,3.532,2.649,6.127,2.828c3.386,0.233,6.973-0.729,10.349-0.978
		c4.604-0.339,9.178-0.224,13.763-0.277c5.828-0.068,11.419-1.903,17.328-0.76c0.799,2.747,0.226,5.832,0.802,8.395
		c0.619,2.755,2.782,5.022,2.869,7.914c3.821,1.254,4.707-0.629,5.077,3.426c0.218,2.389,0.051,5.086,0.519,7.364
		c0.531,2.586,2.379,9.719,4.546,11.049c1.034,0.635,2.88-0.014,4.1-0.034c5.269-0.088,10.961-0.762,16.161-0.204
		c0.312,0.033,0.98,3.288,1.809,3.625c1.221,0.497,2.357-1.343,3.69-0.355c2.018,1.495,2.085,5.738,2.657,7.978
		c1.311-0.608,7.62-3.931,8.59-3.413c2.122,1.137,3.413,7.16,3.563,9.372c1.905-1.66,4.371-1.995,6.556-3.127
		c-0.286-1.236-0.865-2.378-1.186-3.586c5.234-1.266,10.307-7.808,15.773-7.939c-1.575-5.169-3.652-10.186-5.592-15.226
		c-0.494-1.283-4.609-12.451-4.369-12.404c-1.54-0.304-3.122,0.982-4.584,1.475c-2.572,0.866-4.788,1.294-7.111,2.841
		c-0.548,0.365-1.956,1.666-2.604,1.478c-0.997-0.29-2.409-3.276-3.234-4.022c-1.896-1.713-4.633-3.758-6.933-4.958
		c1.532-2.248,2.818-4.922,4.295-7.348c1.229-2.019,7.086-7.991,4.432-9.571c0.831-1.361,1.593-2.795,2.194-4.256
		c-1.616,0.102-3.277-0.352-4.865-0.546c-5.896-0.724-1.52-5.022-4.771-8.522c-0.934-1.005-3.657-1.449-5.005-1.779
		c-3.636-0.892-6.31,1.078-10.131,1.815c-0.855-2.282-4.581-8.478,0.691-6.915c-0.783-2.784-1.328-5.511-2.579-8.07
		c-0.469-0.962-1.777-2.452-1.588-3.616c0.072-0.442,1.323-1.938,1.335-1.646c-0.051-1.24-0.433-2.445-0.664-3.715
		c-0.286-1.563,0.122-4.926-0.564-6.253c-0.412-0.795-1.761-0.942-2.079-1.771c-0.506-1.314,3.91-8.964,4.819-8.266
		c-0.727-0.558-0.813-1.145-1.722-1.511c0.343-0.907,0.724-1.842,1.077-2.765c0.791,0.564,1.826,1.174,2.764,1.425
		c0.382-0.758,4.244-9.281,5.096-8.796c-2.322-1.323-4.899-1.671-7.4-2.417c0.964-2.27,4.198-3.285,5.941-4.986
		c2.283-2.229,4.65-4.494,6.611-7.016c-1.248-0.98-2.661-1.997-3.683-3.22c-0.549-0.657-0.849-1.985-1.61-2.423
		c-0.749-0.43-5.231-0.265-4.266,1.242c-0.89-1.388-4.177-5.139-6.09-4.798c-2.28,0.406-3.996,3.574-5.352,5.176
		c-1.646,1.945-3.687,3.193-5.396,5.114c-3.975,4.466-8.354,8.266-12.479,12.554c-4.048,4.206-9.724,9.191-11.859,14.749
		c-2.014-2.424-3.561-5.329-5.872-7.457c-2.367-2.178-3.622-2.213-3.849-5.561c-0.483-7.145-1.248-15.545,0.376-22.584
		c0.757-3.281,3.754-3.854,6.495-5.722c3.168-2.158,6.154-4.617,8.829-7.365c13.199-13.557,18.712-32.059,31.742-45.784
		c6.102-6.429,15.375-11.148,24.026-12.736c6.1-1.119,13.021-2.433,19.191-1.544c3.703,0.534,9.043-1.437,12.114,1.337
		c0.866-2.765,2.051-4.745,2.535-7.729c0.58-3.574,1.141-7.156,1.976-10.682c0.774-3.271,2.531-6.081,3.013-9.41
		c0.266-1.838-0.184-3.823,0.353-5.633c0.439-1.48,0.797-2.663,2.505-3.05c1.999-0.452,5.479,1.274,7.67,1.999
		c2.211,0.732,2.023,0.991,4.144-0.238c1.446-0.839,4.653-2.404,5.347-4.054c1.3-3.094-4.174-4.366-6.551-5.089
		c-0.77,1.495-1.498,3.121-1.633,4.818c-2.797,0.756-1.839-2.829-3.087-3.857c-1.613-1.328-4.492,1.125-6.368,1.56
		c-0.654-2.781,0.717-5.296,1.28-7.93c0.567-2.649,0.331-5.443,1.055-8.073c4.515-16.414,4.909-33.739,9.762-50.071
		c2.299-7.736,2.244-16.518,3.595-24.517c4.156,1.904,6.363,4.135,9.478,7.482c0.729,0.785,2.287,3.273,3.077,3.735
		c0.662,0.387,1.28,0.027,2.001,0.241c2.015,0.598,4.288,1.112,6.145,1.982c0.205-0.61,3.636-9.757,3.894-9.576
		c6.48,4.547,14.084-2.049,21.159-1.364c4.925,0.477,9.416,2.387,14.329,2.754c5.643,0.422,12.258,2.145,17.636-0.125
		c0.523-5.146,1.045-10.394,2.081-15.463c0.424-2.074,2.091-6.332,1.412-8.435c-0.459-1.423-1.384-1.168-3.143-1.848
		c-1.195-0.461-17.428-5.558-17.256-5.986c0.842-2.107,3.598-2.793,4.389-4.676c0.703-1.676-0.219-5.817-0.917-7.411
		c2.444-1.286,5.991-1.317,8.621-0.337c0.37-0.674,0.427-1.529,0.212-2.24c-3.144,0.088-6.2-0.605-9.398,0.275
		c-2.504,0.689-6.957,3.599-7.396,6.062c-1.439-0.157-2.438-1.236-2.625-2.751c-0.354,0.047-0.838-0.117-1.197-0.073
		c-0.171-1.709,0.379-3.435,0.249-5.067c-1.524-0.077-3.1-0.841-4.546-0.693c0.241,2.278,1.459,5.326,2.639,7.307
		c-1.606,0.29-2.918-0.785-4.503-0.449c-0.075,0.311-0.197,0.656-0.242,0.922c0.452,0.231,0.687,0.673,1.141,0.876
		c0.044,0.546-0.181,1.286-0.478,1.71c-3.156-0.801-6.524-1.685-9.724-2.517c-3.064-0.797-6.147-1.873-9.154-2.856
		c-3.314-1.084-6.307-2.925-9.569-4.13c-2.404-0.888-7.127-0.439-8.886-2.343c-1.859-2.013,1.023-10.064,1.537-12.717
		c0.663-3.427,0.855-6.925,1.453-10.363c0.58-3.341,2.038-6.183,2.757-9.44c1.775-8.042,3.229-16.17,4.445-24.314
		c0.757-5.075-0.746-11.621,6.166-11.489c0.322-2.535,1.563-4.915,2.08-7.371c0.474-2.259,0.565-4.592,1.019-6.876
		c0.45-2.277,2.359-6.594,1.824-8.813c-0.94-3.896-7.523-1.559-10.083-1.345c-1.477,0.123-3.49,0.441-4.515-0.923
		c-0.729-0.969-0.874-4.043-0.222-5.11c0.726-1.188,2.239-1.191,3.503-1.33c2.492-0.273,4.951-0.437,7.483-0.587
		c1.01-2.523,1.021-5.378,1.315-8.049c0.196-1.781,0.985-5.188-0.262-6.749c-0.94-1.177-3.345-1.395-5-1.792
		c-3.154-0.756-6.221-1.731-9.383-2.504c-4.234-1.034-8.555-1.775-12.838-2.562c-2.534-0.465-7.486-1.816-9.134,0.007
		c-1.099,1.215-1.044,4.368-1.347,5.878c-0.765,3.818-1.036,8.121-2.361,11.77c-3.398-0.445-8.542-2.169-11.27-4.282
		c-0.253,4.819-5.478,1.172-8.085-0.05c-5.223-2.448-10.918-4.722-16.4-6.669c-5.581-1.982-11.116-4.003-16.712-6.007
		c-4.705-1.685-9.678-2.736-14.528-3.912c-4.687-1.136-9.512-0.945-14.156-2.338c-4.622-1.387-9.763-0.974-14.655-0.763
		c-5.075,0.219-10.033,1.369-15.032,2.177c-4.639,0.75-9.144,0.565-13.752,1.356c-5.261,0.903-10.52,2.2-15.707,3.452
		c-5.618,1.355-11.912,3.375-16.934,6.292c-4.376,2.542-9.026,4.487-13.496,6.961c-9.515,5.268-17.74,12.454-25.608,19.886
		c-9.01,8.512-16.953,18.386-24.581,28.153C396.123,121.395,393.912,124.948,391.547,128.548z"/>
	<path fill="white" stroke="white" stroke-width="1" shape-rendering="crispEdges" d="M337.733,342.957
		c-0.699-0.352-0.493,4.227-0.474,4.54c0.141,2.238,0.461,4.476,0.34,6.723c-0.08,1.482,0.457,3.742-0.02,5.158
		c-0.404,1.199-1.67,2.425-2.293,3.569c-0.634,1.164-1.242,2.37-1.792,3.58c-1.158,2.549-2.334,5.113-3.444,7.681
		c-1.146,2.65-2.15,5.357-3.441,7.935c-0.536,1.07-2.433,4.173-2.011,5.363c0.41,1.154,2.406,1.496,3.412,1.749
		c1.677,0.422,2.847,0.643,4.267,1.59c3.371,2.249,7.825,2.106,11.71,2.45c3.68,0.326,8.148,1.132,11.809,0.229
		c0.37-0.091,0.735,0.119,1.028-0.117c0.45-0.361,0.401-1.885,0.52-2.379c0.696-2.907,0.547-6.345,0.762-9.359
		c0.074-1.033,0.281-1.443-0.118-2.292c-0.368-0.783-1.651-1.257-1.944-1.85c-0.818-1.654,0.37-3.769,0.149-5.5
		c-0.23-1.804-0.297-3.619-0.332-5.445c-0.025-1.322,0.262-13.197-0.029-13.293c-3.964-1.303-0.65-3.301,0.061-5.783
		c0.354-1.233-0.072-1.143-1.364-1.237c-2.192-0.159-4.437-0.021-6.632,0.009c-1.741,0.023-4.007,0.327-5.677-0.235
		C340.613,345.499,339.293,343.742,337.733,342.957z"/>
</svg>
